# xmcd
#
# Track frame offsets: 
#        150
#        1925
#        16126
#        34136
#        51674
#        62484
#        80585
#        84935
#        102113
#        114352
#        129328
#        149613
#
# Disc length: 2299 seconds
#
# Revision: 0
# Processed by: cddbd v1.5.2PL0 Copyright (c) Steve Scherf et al.
# Submitted via: ExactAudioCopyFreeDBPlugin 1.0
#
DISCID=9208f90c
DTITLE=New Electric Ride - Balloon Age
DYEAR=2014
DGENRE=Psychedelia
TTITLE0=Ode To A Bumblebee
TTITLE1=Here Comes The Bloom
TTITLE2=Marquis De Sade
TTITLE3=Bye Bye (Baton Rouge)
TTITLE4=A Submarine Song
TTITLE5=Bring What You Expect To Get
TTITLE6=I Feel So Invited
TTITLE7=In Chains
TTITLE8=Lovers
TTITLE9=I Can't Help But Smile
TTITLE10=The Beyond
TTITLE11=From Under Me
EXTD=
EXTT0=
EXTT1=
EXTT2=
EXTT3=
EXTT4=
EXTT5=
EXTT6=
EXTT7=
EXTT8=
EXTT9=
EXTT10=
EXTT11=
PLAYORDER=
